<?xml version="1.0" encoding="utf-8"?><svg xml:space="preserve" viewBox="0 0 100 100" y="0" x="0" xmlns="http://www.w3.org/2000/svg" id="Layer_1" version="1.1" width="203px" height="203px" xmlns:xlink="http://www.w3.org/1999/xlink" style="width:100%;height:100%;background-size:initial;background-repeat-y:initial;background-repeat-x:initial;background-position-y:initial;background-position-x:initial;background-origin:initial;background-color:initial;background-clip:initial;background-attachment:initial;animation-play-state:paused" ><g class="ldl-scale" style="transform-origin:50% 50%;transform:rotate(0deg) scale(1, 1);animation-play-state:paused" ><path fill="#f7b26a" d="M50 90c7.6 0 14.7-2.1 20.8-5.8.8-.5.5-1.8-.5-1.8H29.7c-1 0-1.3 1.3-.5 1.8C35.3 87.9 42.4 90 50 90z" style="fill:rgb(21, 128, 61);animation-play-state:paused" ></path>
<path fill="#acbd81" d="M87.1 40.7L74.5 79.3c-.3.9.8 1.7 1.6 1C84.6 73 90 62.1 90 50c0-3.2-.4-6.3-1.1-9.2-.2-1-1.5-1.1-1.8-.1z" style="fill:rgb(21, 128, 61);animation-play-state:paused" ></path>
<path fill="#f47e5f" d="M10 50c0 12.1 5.4 23 13.9 30.3.7.6 1.9-.1 1.6-1L12.9 40.7c-.3-.9-1.6-.9-1.9.1-.6 2.9-1 6-1 9.2z" style="fill:rgb(21, 128, 61);animation-play-state:paused" ></path>
<path fill="#849b87" d="M52.6 11.9l32.9 23.9c.8.6 1.8-.3 1.5-1.2-5.6-13.5-18.5-23.2-33.7-24.5-1.1 0-1.5 1.2-.7 1.8z" style="fill:rgb(21, 128, 61);animation-play-state:paused" ></path>
<path fill="#e15c64" d="M14.5 35.8l32.9-23.9c.8-.6.3-1.8-.6-1.8-15.2 1.2-28.1 11-33.7 24.5-.4.9.6 1.7 1.4 1.2z" style="fill:rgb(21, 128, 61);animation-play-state:paused" ></path>
<metadata xmlns:d="https://loading.io/stock/" style="animation-play-state:paused" ><d:name style="animation-play-state:paused" >pentagon</d:name>
<d:tags style="animation-play-state:paused" >spinner,preloader,loader,badge,pentagon,spinner</d:tags>
<d:license style="animation-play-state:paused" >pro</d:license>
<d:slug style="animation-play-state:paused" >w5ejxp</d:slug></metadata></g><!-- generated by https://loading.io/ --></svg>